<svg width="115" height="59" viewBox="0 0 115 59" fill="none" xmlns="http://www.w3.org/2000/svg">
<g filter="url(#filter0_d_231_9)">
<path d="M4 38V0.173014H20.4015C23.2829 0.173014 25.7025 0.560889 27.6603 1.33664C29.6305 2.11239 31.1143 3.20828 32.1117 4.62433C33.1214 6.04038 33.6262 7.70886 33.6262 9.62976C33.6262 11.0212 33.3184 12.2895 32.7027 13.4346C32.0993 14.5798 31.2497 15.5402 30.1538 16.316C29.0579 17.0794 27.7773 17.6089 26.312 17.9044V18.2738C27.9374 18.3354 29.415 18.7479 30.7449 19.5113C32.0747 20.2624 33.1337 21.3029 33.9217 22.6328C34.7098 23.9503 35.1038 25.5018 35.1038 27.2873C35.1038 29.3559 34.562 31.1968 33.4785 32.8099C32.4072 34.4229 30.8803 35.6912 28.8978 36.6147C26.9154 37.5382 24.5512 38 21.8053 38H4ZM14.2694 29.7992H19.0717C20.7956 29.7992 22.0885 29.4791 22.9504 28.8388C23.8124 28.1862 24.2433 27.2257 24.2433 25.9574C24.2433 25.0709 24.0402 24.3197 23.6338 23.7041C23.2275 23.0884 22.6488 22.6205 21.8976 22.3003C21.1588 21.9802 20.2661 21.8201 19.2195 21.8201H14.2694V29.7992ZM14.2694 15.4663H18.4806C19.3795 15.4663 20.1737 15.3247 20.8633 15.0415C21.5529 14.7583 22.0885 14.352 22.4702 13.8225C22.8642 13.2807 23.0613 12.6219 23.0613 11.8462C23.0613 10.6764 22.6426 9.78368 21.8053 9.16801C20.968 8.54002 19.909 8.22603 18.6284 8.22603H14.2694V15.4663Z" fill="white"/>
<path d="M38.7425 38V0.173014H55.144C58.0254 0.173014 60.445 0.560889 62.4028 1.33664C64.3729 2.11239 65.8567 3.20828 66.8541 4.62433C67.8638 6.04038 68.3687 7.70886 68.3687 9.62976C68.3687 11.0212 68.0608 12.2895 67.4452 13.4346C66.8418 14.5798 65.9922 15.5402 64.8963 16.316C63.8004 17.0794 62.5198 17.6089 61.0545 17.9044V18.2738C62.6798 18.3354 64.1575 18.7479 65.4873 19.5113C66.8172 20.2624 67.8761 21.3029 68.6642 22.6328C69.4523 23.9503 69.8463 25.5018 69.8463 27.2873C69.8463 29.3559 69.3045 31.1968 68.2209 32.8099C67.1496 34.4229 65.6228 35.6912 63.6403 36.6147C61.6578 37.5382 59.2936 38 56.5477 38H38.7425ZM49.0119 29.7992H53.8141C55.538 29.7992 56.8309 29.4791 57.6929 28.8388C58.5548 28.1862 58.9858 27.2257 58.9858 25.9574C58.9858 25.0709 58.7826 24.3197 58.3763 23.7041C57.9699 23.0884 57.3912 22.6205 56.6401 22.3003C55.9013 21.9802 55.0086 21.8201 53.9619 21.8201H49.0119V29.7992ZM49.0119 15.4663H53.2231C54.122 15.4663 54.9162 15.3247 55.6058 15.0415C56.2953 14.7583 56.8309 14.352 57.2127 13.8225C57.6067 13.2807 57.8037 12.6219 57.8037 11.8462C57.8037 10.6764 57.3851 9.78368 56.5477 9.16801C55.7104 8.54002 54.6515 8.22603 53.3709 8.22603H49.0119V15.4663Z" fill="white"/>
<path d="M86.0619 0L71.5619 38H79.0619L89.5619 10.0278L100.562 38H108.562L93.0619 0H86.0619Z" fill="#A2D2FD"/>
<path d="M79.0619 38H71.5619C83.7549 23.4351 91.9907 18.0216 110.562 16C94.424 20.7085 87.5402 25.5491 79.0619 38Z" fill="white"/>
</g>
<path d="M1.87806 55V45.9685H5.36521C5.87114 45.9685 6.31226 46.0731 6.68857 46.2821C7.06488 46.4912 7.35757 46.7734 7.56663 47.1288C7.77569 47.48 7.88022 47.8689 7.88022 48.2954C7.88022 48.7804 7.75061 49.2132 7.49137 49.5937C7.23213 49.97 6.88509 50.2313 6.45024 50.3776L6.4377 50.0703C7.02307 50.2376 7.48301 50.5303 7.81751 50.9484C8.152 51.3665 8.31925 51.8724 8.31925 52.4662C8.31925 52.9888 8.20845 53.4404 7.98685 53.8209C7.76524 54.1972 7.45374 54.4878 7.05234 54.6927C6.65094 54.8976 6.18473 55 5.65372 55H1.87806ZM2.80629 54.1157H5.42793C5.79588 54.1157 6.1262 54.0509 6.41888 53.9212C6.71157 53.7874 6.94154 53.5993 7.10879 53.3568C7.28022 53.1143 7.36593 52.8216 7.36593 52.4787C7.36593 52.1442 7.28858 51.8432 7.13387 51.5756C6.97917 51.308 6.76802 51.0947 6.50042 50.9358C6.237 50.7728 5.93595 50.6912 5.59727 50.6912H2.80629V54.1157ZM2.80629 49.8194H5.35894C5.64744 49.8194 5.91086 49.7546 6.14919 49.625C6.38752 49.4912 6.57568 49.3093 6.71366 49.0794C6.85582 48.8494 6.9269 48.5839 6.9269 48.2828C6.9269 47.8564 6.77847 47.5093 6.4816 47.2417C6.18891 46.9741 5.81469 46.8403 5.35894 46.8403H2.80629V49.8194ZM9.69632 46.9407V45.9058H10.6183V46.9407H9.69632ZM9.69632 55V48.2264H10.6183V55H9.69632ZM15.1892 58.1986C14.8421 58.1986 14.4993 58.1464 14.1606 58.0418C13.8261 57.9415 13.5167 57.7805 13.2324 57.5589C12.948 57.3415 12.7097 57.0572 12.5174 56.7059L13.3515 56.2418C13.5397 56.6181 13.8031 56.8878 14.1418 57.0509C14.4846 57.2181 14.8338 57.3018 15.1892 57.3018C15.6784 57.3018 16.0735 57.2098 16.3746 57.0258C16.6798 56.846 16.9014 56.5784 17.0394 56.223C17.1774 55.8676 17.2443 55.4244 17.2401 54.8934V53.0871H17.3467V48.2264H18.1683V54.9059C18.1683 55.0983 18.162 55.2822 18.1495 55.4578C18.1411 55.6376 18.1223 55.8133 18.0931 55.9847C18.0136 56.4906 17.8485 56.9066 17.5976 57.2328C17.3509 57.5589 17.0248 57.8014 16.6192 57.9603C16.2178 58.1192 15.7411 58.1986 15.1892 58.1986ZM15.1265 55.1882C14.4951 55.1882 13.9557 55.0314 13.5083 54.7178C13.0609 54.4 12.7181 53.9714 12.4797 53.432C12.2414 52.8927 12.1223 52.2843 12.1223 51.6069C12.1223 50.9337 12.2393 50.3275 12.4735 49.7881C12.7118 49.2487 13.0526 48.8222 13.4958 48.5086C13.939 48.195 14.47 48.0382 15.0888 48.0382C15.7244 48.0382 16.2596 48.1929 16.6944 48.5024C17.1293 48.8118 17.4575 49.2362 17.6791 49.7755C17.9049 50.3107 18.0178 50.9212 18.0178 51.6069C18.0178 52.2801 17.907 52.8885 17.6854 53.432C17.4638 53.9714 17.1376 54.4 16.707 54.7178C16.2763 55.0314 15.7495 55.1882 15.1265 55.1882ZM15.2205 54.3289C15.7014 54.3289 16.0986 54.2118 16.4122 53.9777C16.7258 53.7435 16.9599 53.4216 17.1146 53.0118C17.2694 52.5979 17.3467 52.1296 17.3467 51.6069C17.3467 51.0759 17.2694 50.6076 17.1146 50.202C16.9599 49.7923 16.7258 49.4724 16.4122 49.2424C16.1028 49.0125 15.7118 48.8975 15.2394 48.8975C14.7543 48.8975 14.3529 49.0167 14.0352 49.255C13.7174 49.4933 13.4812 49.8174 13.3264 50.2271C13.1759 50.6369 13.1007 51.0968 13.1007 51.6069C13.1007 52.1212 13.178 52.5853 13.3327 52.9993C13.4916 53.409 13.7278 53.7331 14.0414 53.9714C14.355 54.2097 14.7481 54.3289 15.2205 54.3289ZM19.9219 55V45.9685H23.409C23.915 45.9685 24.3561 46.0731 24.7324 46.2821C25.1087 46.4912 25.4014 46.7734 25.6105 47.1288C25.8195 47.48 25.9241 47.8689 25.9241 48.2954C25.9241 48.7804 25.7944 49.2132 25.5352 49.5937C25.276 49.97 24.9289 50.2313 24.4941 50.3776L24.4815 50.0703C25.0669 50.2376 25.5268 50.5303 25.8613 50.9484C26.1958 51.3665 26.3631 51.8724 26.3631 52.4662C26.3631 52.9888 26.2523 53.4404 26.0307 53.8209C25.8091 54.1972 25.4976 54.4878 25.0962 54.6927C24.6948 54.8976 24.2286 55 23.6975 55H19.9219ZM20.8501 54.1157H23.4718C23.8397 54.1157 24.17 54.0509 24.4627 53.9212C24.7554 53.7874 24.9854 53.5993 25.1526 53.3568C25.324 53.1143 25.4098 52.8216 25.4098 52.4787C25.4098 52.1442 25.3324 51.8432 25.1777 51.5756C25.023 51.308 24.8118 51.0947 24.5442 50.9358C24.2808 50.7728 23.9798 50.6912 23.6411 50.6912H20.8501V54.1157ZM20.8501 49.8194H23.4028C23.6913 49.8194 23.9547 49.7546 24.193 49.625C24.4314 49.4912 24.6195 49.3093 24.7575 49.0794C24.8997 48.8494 24.9707 48.5839 24.9707 48.2828C24.9707 47.8564 24.8223 47.5093 24.5254 47.2417C24.2327 46.9741 23.8585 46.8403 23.4028 46.8403H20.8501V49.8194ZM27.7401 46.9407V45.9058H28.6621V46.9407H27.7401ZM27.7401 55V48.2264H28.6621V55H27.7401ZM35.4344 55V51.5442C35.4344 51.1679 35.3989 50.8229 35.3278 50.5094C35.2567 50.1916 35.1418 49.9156 34.9829 49.6815C34.8282 49.4431 34.6254 49.2592 34.3745 49.1295C34.1278 48.9999 33.8268 48.9351 33.4713 48.9351C33.1452 48.9351 32.8567 48.9916 32.6058 49.1045C32.3591 49.2174 32.1501 49.3804 31.9786 49.5937C31.8114 49.8027 31.6839 50.0578 31.5961 50.3588C31.5083 50.6599 31.4644 51.0027 31.4644 51.3874L30.8121 51.2432C30.8121 50.5491 30.9333 49.9658 31.1759 49.4933C31.4184 49.0208 31.7529 48.6633 32.1793 48.4208C32.6058 48.1783 33.095 48.0571 33.647 48.0571C34.0525 48.0571 34.4059 48.1198 34.7069 48.2452C35.0121 48.3707 35.2693 48.54 35.4783 48.7532C35.6916 48.9665 35.863 49.2111 35.9926 49.487C36.1223 49.7588 36.2163 50.0494 36.2749 50.3588C36.3334 50.6641 36.3627 50.9693 36.3627 51.2745V55H35.4344ZM30.5361 55V48.2264H31.3703V49.8947H31.4644V55H30.5361ZM39.9282 55.1882C39.4181 55.1882 38.9895 55.0962 38.6425 54.9122C38.2996 54.7282 38.0425 54.4836 37.8711 54.1784C37.6996 53.8732 37.6139 53.5407 37.6139 53.1812C37.6139 52.8132 37.6871 52.4996 37.8334 52.2404C37.9839 51.977 38.1867 51.7616 38.4418 51.5944C38.701 51.4271 39 51.2996 39.3387 51.2118C39.6815 51.1282 40.0599 51.055 40.4739 50.9923C40.892 50.9254 41.2997 50.8689 41.6969 50.8229C42.0983 50.7728 42.4495 50.7247 42.7506 50.6787L42.4244 50.8794C42.437 50.2104 42.3073 49.7149 42.0356 49.393C41.7638 49.071 41.2913 48.91 40.6181 48.91C40.154 48.91 39.761 49.0146 39.439 49.2236C39.1212 49.4327 38.8975 49.763 38.7679 50.2146L37.8711 49.9512C38.0258 49.3449 38.3373 48.8745 38.8056 48.54C39.2739 48.2055 39.8822 48.0382 40.6307 48.0382C41.2495 48.0382 41.7742 48.1553 42.2049 48.3895C42.6398 48.6194 42.9471 48.9539 43.1269 49.393C43.2105 49.5895 43.2648 49.809 43.2899 50.0515C43.315 50.294 43.3276 50.5407 43.3276 50.7916V55H42.506V53.3003L42.7443 53.4007C42.5143 53.9819 42.1568 54.4251 41.6718 54.7303C41.1868 55.0355 40.6056 55.1882 39.9282 55.1882ZM40.0348 54.3916C40.4655 54.3916 40.8418 54.3143 41.1638 54.1596C41.4857 54.0049 41.745 53.7937 41.9415 53.5261C42.138 53.2543 42.2655 52.9491 42.3241 52.6104C42.3742 52.393 42.4014 52.1547 42.4056 51.8954C42.4098 51.632 42.4119 51.4355 42.4119 51.3059L42.7631 51.4878C42.4495 51.5296 42.1087 51.5714 41.7408 51.6132C41.377 51.655 41.0174 51.7031 40.662 51.7575C40.3108 51.8118 39.993 51.8766 39.7087 51.9519C39.5164 52.0062 39.3303 52.0836 39.1505 52.1839C38.9707 52.2801 38.8223 52.4097 38.7052 52.5728C38.5923 52.7359 38.5359 52.9387 38.5359 53.1812C38.5359 53.3777 38.584 53.5679 38.6801 53.7519C38.7805 53.9359 38.9394 54.0885 39.1568 54.2097C39.3784 54.331 39.6711 54.3916 40.0348 54.3916ZM44.9603 55V48.2264H45.7882V49.8571L45.6251 49.6438C45.7004 49.4431 45.7986 49.2592 45.9199 49.0919C46.0412 48.9205 46.1729 48.7804 46.315 48.6717C46.4906 48.517 46.6955 48.3999 46.9297 48.3205C47.1638 48.2369 47.4001 48.1888 47.6384 48.1762C47.8767 48.1595 48.0941 48.1762 48.2907 48.2264V49.0919C48.044 49.0292 47.7743 49.0146 47.4816 49.048C47.1889 49.0815 46.9192 49.1985 46.6725 49.3992C46.4467 49.5748 46.2774 49.786 46.1645 50.0327C46.0516 50.2752 45.9763 50.5344 45.9387 50.8104C45.9011 51.0822 45.8823 51.3519 45.8823 51.6195V55H44.9603ZM50.3606 58.0105L51.6714 54.4543L51.6902 55.508L48.7236 48.2264H49.702L52.1355 54.3164H51.7341L53.9794 48.2264H54.9202L51.2825 58.0105H50.3606ZM57.8936 55L60.741 45.9685H62.9549L65.8024 55H64.2469L61.6629 46.8968H62.0016L59.449 55H57.8936ZM59.4803 53.0432V51.632H64.2219V53.0432H59.4803ZM69.8778 55.1882C69.1795 55.1882 68.5837 55.0334 68.0903 54.724C67.5969 54.4104 67.2185 53.984 66.9551 53.4446C66.6959 52.9052 66.5642 52.2947 66.56 51.6132C66.5642 50.9191 66.7001 50.3045 66.9677 49.7693C67.2394 49.2299 67.6241 48.8076 68.1217 48.5024C68.6192 48.1929 69.2109 48.0382 69.8966 48.0382C70.666 48.0382 71.3161 48.2327 71.8472 48.6215C72.3824 49.0062 72.7315 49.533 72.8946 50.202L71.3893 50.6097C71.2722 50.2459 71.0778 49.9637 70.806 49.763C70.5342 49.5581 70.2248 49.4557 69.8778 49.4557C69.4848 49.4557 69.1607 49.5498 68.9057 49.7379C68.6506 49.9219 68.4624 50.1769 68.3412 50.5031C68.2199 50.8292 68.1593 51.1993 68.1593 51.6132C68.1593 52.2571 68.3036 52.7777 68.5921 53.1749C68.8806 53.5721 69.3091 53.7707 69.8778 53.7707C70.2792 53.7707 70.5949 53.6787 70.8248 53.4948C71.059 53.3108 71.2346 53.0453 71.3517 52.6982L72.8946 53.0432C72.6855 53.7331 72.3196 54.2641 71.797 54.6362C71.2743 55.0042 70.6346 55.1882 69.8778 55.1882ZM75.9352 55.1882C75.446 55.1882 75.0321 55.0962 74.6934 54.9122C74.3547 54.724 74.0976 54.4753 73.922 54.1658C73.7505 53.8564 73.6648 53.5157 73.6648 53.1435C73.6648 52.8174 73.7192 52.5247 73.8279 52.2655C73.9366 52.0021 74.1038 51.7763 74.3296 51.5881C74.5554 51.3958 74.8481 51.239 75.2077 51.1177C75.4795 51.0299 75.7972 50.9505 76.161 50.8794C76.529 50.8083 76.9262 50.7435 77.3527 50.685C77.7833 50.6222 78.2328 50.5553 78.7011 50.4843L78.1617 50.7916C78.1659 50.3233 78.0614 49.9783 77.8481 49.7567C77.6349 49.5351 77.2753 49.4243 76.7694 49.4243C76.4642 49.4243 76.1694 49.4954 75.8851 49.6376C75.6007 49.7797 75.4021 50.0243 75.2892 50.3714L73.9094 49.9386C74.0767 49.3658 74.3944 48.9058 74.8627 48.5588C75.3352 48.2118 75.9708 48.0382 76.7694 48.0382C77.3715 48.0382 77.9004 48.1365 78.3562 48.333C78.8161 48.5295 79.1569 48.8515 79.3785 49.2989C79.4997 49.5372 79.5729 49.7818 79.598 50.0327C79.6231 50.2794 79.6356 50.5491 79.6356 50.8418V55H78.3123V53.5324L78.5318 53.7707C78.2265 54.2599 77.8691 54.6195 77.4593 54.8495C77.0537 55.0753 76.5457 55.1882 75.9352 55.1882ZM76.2363 53.984C76.5791 53.984 76.8718 53.9233 77.1143 53.8021C77.3569 53.6808 77.5492 53.5324 77.6913 53.3568C77.8377 53.1812 77.936 53.016 77.9861 52.8613C78.0656 52.669 78.1095 52.4494 78.1178 52.2028C78.1304 51.9519 78.1367 51.7491 78.1367 51.5944L78.6008 51.7324C78.145 51.8034 77.7541 51.8662 77.4279 51.9205C77.1018 51.9749 76.8217 52.0271 76.5875 52.0773C76.3534 52.1233 76.1464 52.1756 75.9666 52.2341C75.791 52.2968 75.6425 52.37 75.5213 52.4536C75.4 52.5373 75.306 52.6334 75.2391 52.7421C75.1763 52.8508 75.145 52.9784 75.145 53.1247C75.145 53.292 75.1868 53.4404 75.2704 53.57C75.354 53.6955 75.4753 53.7958 75.6342 53.8711C75.7972 53.9463 75.9979 53.984 76.2363 53.984ZM83.9842 55.1882C83.3612 55.1882 82.8176 55.0314 82.3535 54.7178C81.8894 54.4042 81.5298 53.9777 81.2747 53.4383C81.0197 52.8989 80.8922 52.2906 80.8922 51.6132C80.8922 50.9275 81.0197 50.317 81.2747 49.7818C81.534 49.2424 81.8998 48.818 82.3723 48.5086C82.8448 48.195 83.4009 48.0382 84.0406 48.0382C84.6845 48.0382 85.2239 48.195 85.6588 48.5086C86.0978 48.818 86.4302 49.2424 86.656 49.7818C86.8818 50.3212 86.9947 50.9317 86.9947 51.6132C86.9947 52.2864 86.8818 52.8947 86.656 53.4383C86.4302 53.9777 86.0936 54.4042 85.6462 54.7178C85.1988 55.0314 84.6448 55.1882 83.9842 55.1882ZM84.2162 53.8334C84.6218 53.8334 84.948 53.7414 85.1946 53.5575C85.4455 53.3693 85.6274 53.108 85.7403 52.7735C85.8574 52.439 85.9159 52.0522 85.9159 51.6132C85.9159 51.17 85.8574 50.7832 85.7403 50.4529C85.6274 50.1184 85.4497 49.8592 85.2072 49.6752C84.9647 49.487 84.6511 49.393 84.2664 49.393C83.8608 49.393 83.5263 49.4933 83.2629 49.694C82.9995 49.8905 82.8051 50.1581 82.6796 50.4968C82.5542 50.8313 82.4915 51.2034 82.4915 51.6132C82.4915 52.0271 82.5521 52.4035 82.6734 52.7421C82.7988 53.0766 82.989 53.3421 83.2441 53.5387C83.4992 53.7352 83.8232 53.8334 84.2162 53.8334ZM85.9159 55V50.2459H85.7278V45.9685H87.2518V55H85.9159ZM92.0898 55.1882C91.404 55.1882 90.8019 55.0397 90.2835 54.7429C89.765 54.446 89.3594 54.0341 89.0667 53.5073C88.7782 52.9805 88.634 52.3742 88.634 51.6885C88.634 50.9484 88.7761 50.3066 89.0605 49.763C89.3448 49.2153 89.7399 48.7909 90.2458 48.4898C90.7518 48.1888 91.3371 48.0382 92.002 48.0382C92.7044 48.0382 93.3002 48.2034 93.7894 48.5337C94.2828 48.8599 94.6487 49.3219 94.887 49.9198C95.1253 50.5177 95.2152 51.2223 95.1567 52.0334H93.6577V51.4815C93.6535 50.7456 93.5239 50.2083 93.2689 49.8696C93.0138 49.5309 92.6124 49.3616 92.0647 49.3616C91.4458 49.3616 90.9859 49.5539 90.6849 49.9386C90.3838 50.3191 90.2333 50.8773 90.2333 51.6132C90.2333 52.2989 90.3838 52.8299 90.6849 53.2062C90.9859 53.5826 91.4249 53.7707 92.002 53.7707C92.3741 53.7707 92.6939 53.6892 92.9615 53.5261C93.2333 53.3589 93.4424 53.1184 93.5887 52.8049L95.0814 53.2564C94.8222 53.8669 94.4208 54.3415 93.8772 54.6801C93.3379 55.0188 92.742 55.1882 92.0898 55.1882ZM89.7566 52.0334V50.8919H94.4166V52.0334H89.7566ZM104.507 55V50.8857C104.507 50.4215 104.392 50.0599 104.162 49.8006C103.932 49.5372 103.621 49.4055 103.227 49.4055C102.985 49.4055 102.768 49.462 102.575 49.5748C102.383 49.6836 102.23 49.8466 102.117 50.0641C102.004 50.2773 101.948 50.5323 101.948 50.8292L101.277 50.4341C101.273 49.9658 101.377 49.5539 101.591 49.1985C101.808 48.8389 102.101 48.5588 102.469 48.3581C102.837 48.1574 103.246 48.0571 103.698 48.0571C104.446 48.0571 105.019 48.2828 105.416 48.7344C105.818 49.1818 106.018 49.7714 106.018 50.5031V55H104.507ZM96.3598 55V48.2264H97.6957V50.3275H97.8839V55H96.3598ZM100.443 55V50.9045C100.443 50.432 100.328 50.0641 100.098 49.8006C99.8679 49.5372 99.5543 49.4055 99.1571 49.4055C98.7724 49.4055 98.463 49.5372 98.2288 49.8006C97.9989 50.0641 97.8839 50.4069 97.8839 50.8292L97.2065 50.3776C97.2065 49.9386 97.3152 49.5435 97.5327 49.1923C97.7501 48.841 98.0428 48.5651 98.4107 48.3644C98.7828 48.1595 99.1989 48.0571 99.6588 48.0571C100.165 48.0571 100.587 48.1658 100.926 48.3832C101.269 48.5964 101.524 48.8891 101.691 49.2613C101.862 49.6292 101.948 50.0452 101.948 50.5094V55H100.443ZM108.3 58.0105L109.605 54.4293L109.63 55.4829L106.676 48.2264H108.25L110.345 53.5951H109.943L111.982 48.2264H113.493L109.717 58.0105H108.3Z" fill="white"/>
<defs>
<filter id="filter0_d_231_9" x="0" y="0" width="114.562" height="46" filterUnits="userSpaceOnUse" color-interpolation-filters="sRGB">
<feFlood flood-opacity="0" result="BackgroundImageFix"/>
<feColorMatrix in="SourceAlpha" type="matrix" values="0 0 0 0 0 0 0 0 0 0 0 0 0 0 0 0 0 0 127 0" result="hardAlpha"/>
<feOffset dy="4"/>
<feGaussianBlur stdDeviation="2"/>
<feComposite in2="hardAlpha" operator="out"/>
<feColorMatrix type="matrix" values="0 0 0 0 0 0 0 0 0 0 0 0 0 0 0 0 0 0 0.13 0"/>
<feBlend mode="normal" in2="BackgroundImageFix" result="effect1_dropShadow_231_9"/>
<feBlend mode="normal" in="SourceGraphic" in2="effect1_dropShadow_231_9" result="shape"/>
</filter>
</defs>
</svg>
